<?xml version="1.0" encoding="UTF-8"?>
<svg xmlns="http://www.w3.org/2000/svg" id="Layer_1" viewBox="0 0 125.06 158.54">
  <defs>
    <style>.cls-1{fill:#e58303;}.cls-2{fill:#fcdb1f;}.cls-3{fill:#3871fc;}</style>
  </defs>
  <g>
    <path d="M24.42,158.11h-4.45l-5.11-7.23-1.65,1.7v5.54h-3.4v-16.55h3.4v6.82l6.39-6.82h4.47l-6.78,6.82,7.13,9.74Z"></path>
    <path d="M35.29,141.56h3.44v16.55h-3.44v-16.55Z"></path>
    <path d="M57.16,155.72c.82,0,1.48-.09,1.99-.27,.97-.34,1.45-.98,1.45-1.92,0-.55-.24-.97-.72-1.27-.48-.29-1.23-.55-2.26-.78l-1.75-.39c-1.72-.39-2.91-.81-3.57-1.27-1.12-.76-1.67-1.96-1.67-3.58,0-1.48,.54-2.71,1.62-3.7s2.66-1.47,4.75-1.47c1.74,0,3.23,.46,4.46,1.39,1.23,.93,1.88,2.27,1.94,4.03h-3.32c-.06-1-.49-1.71-1.3-2.12-.54-.28-1.21-.42-2.01-.42-.89,0-1.6,.18-2.13,.54-.53,.36-.8,.86-.8,1.51,0,.59,.26,1.03,.79,1.32,.34,.2,1.06,.42,2.16,.69l2.85,.69c1.25,.3,2.19,.7,2.83,1.2,.99,.78,1.48,1.9,1.48,3.38s-.58,2.77-1.73,3.77c-1.16,1-2.79,1.5-4.9,1.5s-3.85-.49-5.09-1.48-1.85-2.34-1.85-4.06h3.3c.11,.76,.31,1.32,.62,1.7,.56,.68,1.52,1.02,2.89,1.02Z"></path>
    <path d="M87.21,150.88h-8.04v4.26h9.16v2.98h-12.54v-16.55h12.14v2.93h-8.76v3.52h8.04v2.88Z"></path>
    <path d="M103.4,158.11h-3.22v-16.55h5.03l3.01,13.02,2.99-13.02h4.97v16.55h-3.22v-11.2c0-.32,0-.77,.01-1.35s.01-1.03,.01-1.34l-3.13,13.89h-3.36l-3.11-13.89c0,.31,0,.76,.01,1.34,0,.58,.01,1.03,.01,1.35v11.2Z"></path>
  </g>
  <g>
    <path class="cls-1" d="M111.84,49.19c-1.19-4.86-3.1-9.44-5.62-13.61-.21-.35-.24-.77-.07-1.14l5.21-11.29c.21-.46,.12-1.01-.24-1.38l-7.72-7.74c-.36-.36-.91-.46-1.38-.25l-11.29,5.19c-.37,.17-.79,.14-1.14-.07-4.19-2.54-8.79-4.48-13.68-5.68-.39-.1-.71-.38-.85-.76L70.74,.8C70.57,.32,70.11,0,69.6,0h-4.19c-.68,0-1.22,.55-1.22,1.22V21.12c0,.67,.53,1.2,1.2,1.22,20.74,.66,37.35,17.68,37.35,38.58s-16.61,37.92-37.35,38.58c-.67,.02-1.2,.55-1.2,1.22v19.9c0,.68,.55,1.22,1.22,1.22h4.19c.51,0,.97-.32,1.15-.8l4.31-11.67c.14-.38,.46-.66,.85-.76,4.86-1.2,9.43-3.11,13.6-5.63,.35-.21,.77-.24,1.14-.07l11.33,5.21c.47,.21,1.01,.12,1.38-.25l7.73-7.73c.36-.36,.46-.91,.25-1.38l-5.21-11.32c-.17-.37-.14-.79,.07-1.14,2.52-4.16,4.43-8.73,5.63-13.58,.1-.39,.38-.71,.76-.85l11.68-4.3c.48-.18,.8-.63,.8-1.15v-10.93c.01-.51-.31-.97-.79-1.15l-11.67-4.32c-.38-.14-.66-.46-.76-.85Z"></path>
    <polygon class="cls-2" points="64.73 59.36 70.65 40.91 53.78 62.15 53.77 62.15 59.12 65.39 53.19 83.84 70.07 62.59 70.07 62.59 64.73 59.36"></polygon>
    <path class="cls-2" d="M.62,60.71c.11,.04,.22,.09,.33,.13,9.4,.11,18.07,4.27,23.9,11.45l.87,1.07c-1.29-3.82-2-7.91-2-12.16,0-.18,.01-.35,.01-.53h0c0-.17-.01-.33-.01-.5,0-20.58,16.37-37.41,36.78-38.14,.7-.03,1.26-.58,1.26-1.29V4.33c0-1.23-1.57-1.76-2.31-.78-2.61,3.48-6.47,5.89-10.16,7.13-.03,.01-.07,.02-.1,.03-.81,.21-1.62,.43-2.42,.68-.06,.02-.12,.03-.18,.04-5.07,.79-11.16-.04-15.56-3.82l-.08,.05c1.19,6.12-1.54,12.26-5.11,16.28-.02,.02-.04,.04-.06,.07-.61,.6-1.21,1.22-1.79,1.85-.04,.04-.08,.08-.13,.12-3.97,3.32-9.71,5.76-15.49,4.72l-.05,.08c4.18,4.72,4.92,11.5,3.83,16.81-.1,.37-.18,.74-.26,1.11-.01,.06-.03,.12-.05,.18-1.83,4.86-5.65,9.84-11.22,11.77v.04h0Z"></path>
    <path class="cls-3" d="M62.21,104.89c-22.16-.29-31.35-11.81-39.45-21.97-6.29-7.88-11.73-18.72-22.44-18.8l.04-1.01c13.12,.1,19.84,8.52,26.34,16.67,7.77,9.74,15.81,19.81,35.59,20.08l-.07,5.04Z"></path>
    <path class="cls-3" d="M62.27,112.87c-23.07,0-33.24-12.4-41.41-22.37-6.4-7.81-11.5-13.97-20.86-14.12v-5.03c11.69,.18,18.1,7.84,24.75,15.96,8.28,10.09,16.84,20.53,37.52,20.53v5.04Z"></path>
    <path class="cls-3" d="M60.31,120.93c-22.8,0-33.64-13.09-42.4-23.67-5.93-7.16-10.64-12.85-17.39-12.85-.13,0-.4,0-.53,0v-5.03c9.44-.27,15.43,6.97,21.8,14.67,8.74,10.56,18.65,26.56,40.38,25.85l.17,1c-.69,.02-1.37,.03-2.04,.03Z"></path>
  </g>
</svg>
